<?xml version="1.0" encoding="utf-8"?>
<!-- Generator: Adobe Illustrator 28.3.0, SVG Export Plug-In . SVG Version: 6.00 Build 0)  -->
<svg version="1.1" id="Capa_1" xmlns="http://www.w3.org/2000/svg" xmlns:xlink="http://www.w3.org/1999/xlink" x="0px" y="0px"
	 viewBox="0 0 1385.5 245" style="enable-background:new 0 0 1385.5 245;" xml:space="preserve">
<style type="text/css">
	.st0{fill:#FFFFFF;}
</style>
<path class="st0" d="M1345.7,57.8c-15.5-6.2-23.7-18.5-29.4-33.2c-1.6-4-2.7-8.2-4.5-12.2c-3.5-7.9-9.5-12-15.8-11.9
	c-4.9,0.2-10,3-14.1,8.6c-3.2,4.5-4.4,10.6-5.9,16.2c-1.2,4.6-1.5,9.5-2.2,14.3c-2.3,14.3-11.9,20.1-21.9,20.1
	c-3.9,0.1-7.9-0.8-11.5-2.3c-7.4-3.1-13.5-9.4-19.8-14.8c-5.5-4.8-10.2-10.6-15.7-15.3c-8.6-7.3-18.9-9.5-29.5-9.6
	c-2.3,0-4.7,0.1-7,0.2c-15,0.9-28.4,6.5-39.8,16.6c-10.5,9.4-14.8,21.4-15.9,35c-1.8,21.6,5.4,41,14.1,60.1
	c6.5,14.3,13,28.6,15.5,44.2c1.6,9.6,1.2,19.3-1.8,28.7c-5.5,16.9-18.1,26.1-32.3,25.8c-7.5-0.1-15.4-2.8-23-8.4
	c-13.6-10.1-21.7-23.8-25.3-40.1c-3.5-15.9-6.1-32.1-9.7-48c-2.9-12.5-7.1-24.8-15.1-35.1c-7.1-9.1-17.3-14.6-28.1-14.6
	c-5.6,0-11.4,1.6-16.9,4.9c-7,4.2-10.1,10.8-10.4,18.9c-0.2,6.1-0.1,12.4-1,18.4c-1.4,9.9-7.6,15.6-17.5,17.2
	c-1.8,0.3-3.6,0.4-5.4,0.4c-11.9,0.2-22.2-6-28.2-17.3c-5.5-10.3-8.4-21.5-9.1-33c-0.8-13.3-1.8-26.6-6.1-39.3
	c-5.4-15.9-17.3-25-33-29.7c-0.8-0.2-1.6-0.5-2.4-0.8c-2.7-0.1-5.4-0.3-8.1-0.3c-4.5,0-9,0.3-13.5,1.4c-0.3,0.2-0.7,0.4-1,0.5
	c-8.9,2.5-14.6,9.1-19.9,16.1c-8.2,10.6-10.7,22.9-7.7,35.4c3,12.4,8.3,24.2,11.9,36.5c2.4,7.9,4.7,16.1,5.1,24.3
	c1.1,24.9-15.2,35.9-32.7,35.9c-4.9,0-10-0.8-14.8-2.5c-16.5-5.7-26.9-17.7-33.7-32.9c-5.3-11.8-9.1-24.3-13.8-36.4
	c-1.5-3.8-3.2-7.8-5.6-11c-2.3-3.1-5.3-4.6-8.4-4.6c-3.1,0.1-6.2,1.8-8.6,5c-3.9,5.3-3.9,11.2-2.6,17.2c1.6,7.3,3.8,14.5,4.7,21.9
	c1.9,15.1,0.1,29.7-8.6,42.6c-8.4,12.5-20.1,18.6-34.2,18.8c-2,0-4.1-0.1-6.2-0.3c-12-1.2-19.8-8.7-24.6-19.6
	c-5.8-13.3-4.2-26.7-0.9-40.2c3.6-14.7,7.7-29.3,7.2-44.7c-0.6-17.4-2.8-34.5-14.5-48.3c-5.7-6.7-13.3-10.5-20.8-10.6
	c-7.5,0.1-14.9,4-20.3,12.8c-5.1,8.4-7.8,17.5-5.8,27.2c2.5,12.4,5.9,24.5,8.6,36.9c2.5,11.8,3.7,23.8-1.2,35.4
	c-4.9,11.7-15.2,18.4-27.2,18.3c-1.8,0-3.6-0.1-5.4-0.4c-13.3-2.1-24.6-8-32.6-18.7c-9.4-12.5-17.2-26.2-26.6-38.7
	c-5.6-7.5-12.2-14.6-19.7-20.3c-7.6-5.8-15.9-8.6-24-8.6c-10.5,0.2-20.6,5.2-28.6,14.8c-5.9,7.1-10.4,15.4-14.8,23.6
	c-5.3,9.6-9.3,20-15,29.3c-3.9,6.4-9.2,12.4-15.1,17c-7.3,5.7-15.1,8.5-22.6,8.3c-8.7-0.1-17.1-4-24.4-11.8
	c-7.4-7.8-13.1-17.2-20-25.5c-3.9-4.7-8-9.5-12.8-13.2c-6.7-5.1-13.7-7.6-20.4-7.7c-11.1,0-21.4,6.5-28.3,19
	c-1.4,2.5-2.8,4.9-4.2,7.4c-6.8,11.8-16.2,16.3-26,16.1c-6.8,0-13.7-2.4-19.9-6.1c-7.8-4.6-13.4-11.3-16.9-19.8
	c-2.8-6.7-8.6-10.5-15.2-10.4c-0.9,0-1.9,0.1-2.9,0.3c-7.8,1.5-12.6,7.6-13.3,15.9c-0.7,8.6-1.5,17.2-3,25.7
	c-0.8,4.5-2.6,9-4.7,13.1c-5.4,10.6-14.4,16.2-23.7,16.2c-7.3,0.1-14.8-3-21.2-9.6c-10.7-11-14.2-24.7-13.3-39.5
	c0.7-11.8,2.4-23.5,3.1-35.3c1-16.2-1.1-31.6-13.4-43.9c-5.8-5.8-12.5-8.8-19.8-8.7c-2.4,0.1-4.9,0.5-7.4,1.3
	c-9.5,3-18.5,8.2-27.4,12.8c-3.3,1.7-21.7,5.4-40.5,7.3v178h1386V67.3C1372.5,67.3,1355.4,61.7,1345.7,57.8z"/>
</svg>
