<?xml version="1.0" encoding="UTF-8"?>
<svg id="Capa_1" data-name="Capa 1" xmlns="http://www.w3.org/2000/svg" version="1.1" viewBox="0 0 520 210">
  <defs>
    <style>
      .cls-1 {
        fill: #00dc04;
        stroke-width: 0px;
      }
    </style>
  </defs>
  <g>
    <path class="cls-1" d="M316.1,153.7c13.9,12.7,30.4,21.5,47.8,26.1,17.4,4.6,35.7,5.1,53.2,1.8,17.5-3.3,34.3-10.5,48.9-21.1,14.5-10.7,26.6-24.9,35-41.8.2-.3.6-.5.9-.3.3.2.4.5.4.8-4.7,18.7-16,35.6-30.8,48.3-14.8,12.8-33.1,21.3-52.3,25-19.2,3.6-39.4,2.4-57.8-4.2-18.4-6.4-35.1-18.1-46.3-33.7-.2-.3-.1-.7.1-1,.3-.2.6-.2.9,0h0Z"/>
    <path class="cls-1" d="M516.7,124.5c-1.8-2.1-3.7-3.9-5.7-5.5-2.1-1.5-4.2-2.7-6.6-3.5-.6-.3-1.2-.3-1.8-.5l-.9-.2h-.9c-.6-.2-1.2-.3-1.9-.4-.6,0-1.3,0-1.9,0-.3,0-.6,0-1,0-.3,0-.6,0-1,0h-2c-1.3.2-2.6.5-4.1.6h0c-.4,0-.7-.3-.7-.7,0-.3.1-.5.3-.6,1.2-.7,2.5-1.4,3.9-1.9l2.1-.6c.7-.2,1.4-.4,2.2-.5.7,0,1.5-.2,2.2-.3.8,0,1.5,0,2.3,0,.4,0,.8,0,1.1,0l1.1.2c.8.2,1.5.3,2.2.6,3,.9,5.6,2.7,7.7,4.8,2.1,2.2,3.7,4.8,4.5,7.7,0,.4-.1.8-.5.8-.3,0-.5,0-.7-.2h0c0,0,0,0,0,0Z"/>
  </g>
  <g>
    <path class="cls-1" d="M187.8,204.9c-.8-.1-1.4-.5-1.8-1.1-.4-.6-.7-1.2-.8-1.8-2.4-7.4-3.8-15.1-4-22.8v-1.9c-.1-7.1.3-13.9,1.3-20.4h0c.2-1.5.5-2.7,1-3.5s1.7-1.4,3.5-1.6c2-.2,4-.4,5.8-.4,4.6,0,8.8.6,12.7,2,3.9,1.4,6.7,3.7,8.5,6.8,1,1.8,1.5,3.6,1.5,5.6,0,1.5-.4,3.6-1.3,6.4-.9,2.7-3.6,5.8-8.1,9.2,4.1,1.8,6.8,3.9,7.9,6.5.4.9.6,1.8.6,2.7,0,1.7-.7,3.6-2.1,5.7-1.4,2.1-4.3,4.1-8.6,5.8s-9.6,2.7-16.1,2.8h0ZM196,156.9c-.7,3.4-1.2,7-1.5,11-.3,3.9-.4,7.6-.4,10.8,3.5-.6,6.4-2,8.7-4.2,2.2-2.2,3.6-4.6,4.1-7.3.1-.7.2-1.3.2-1.9,0-1.9-.8-3.7-2.3-5.5-1.5-1.8-4.4-2.7-8.7-2.9h0ZM197.5,198.8c2.7-.7,4.8-1.8,6.4-3.3s2.3-3.1,2.3-4.8h0c0-1.8-.9-3.1-2.7-4.2-1.8-1.1-4.5-1.6-8.2-1.5h-.5c.1,1.8.4,4.1,1,7,.6,2.9,1.1,5.2,1.8,6.9h0Z"/>
    <path class="cls-1" d="M240.2,203.3c-5.1,0-9.1-1-11.9-2.9-2.8-1.9-4.8-4.6-6-8.1-1.2-3.5-1.9-7.7-2.1-12.6,0-1.3-.1-2.6-.1-3.8,0-3.5,0-7.3.3-11.4.3-4.1.6-7.3,1-9.8.2-1.1,1-1.8,2.2-2.3,1.2-.4,2.6-.6,4-.7,1.7,0,3.1,0,4.4.3,1.2.2,2.2.6,2.8,1.2.5.5.8,1.1.8,2,0,.2,0,.4,0,.6-.2.9-.4,2.9-.7,6-.3,3-.6,6.6-.7,10.6,0,2-.1,3.9,0,5.9,0,1.9.2,4.3.4,7.1.2,2.8.9,5.4,2,7.7,1,2.1,2.5,3.2,4.4,3.1.2,0,.4,0,.6,0,2.2-.4,3.9-1.9,5.2-4.3,1.3-2.5,2.2-5.5,2.7-9,.6-3.6.9-7.2.9-10.9,0-1.9,0-3.6,0-5.3,0-1.7-.1-3.6-.2-5.9-.1-2.2-.3-4-.4-5.2,0-.3,0-.6,0-.8,0-.5,0-1,.2-1.5.2-.5.8-1,1.9-1.4.7-.2,1.6-.4,2.7-.4h.2c1,0,1.9.1,2.8.5s1.4,1,1.6,1.9c.2,2.4.4,5.7.5,9.7v1.4c0,3.6,0,7.3-.2,11.2-.2,3.5-.6,6.8-1.3,10.1-.7,3.2-1.7,6.1-3.1,8.7s-3.3,4.7-5.7,6.2c-2.4,1.6-5.4,2.4-9.1,2.4h0Z"/>
    <path class="cls-1" d="M272.4,177c-3.4-1.8-5.7-4.5-6.9-7.9-.5-1.5-.8-3-.9-4.5,0-1.9.4-3.8,1.2-5.7,1.9-3.4,4.8-5.7,8.8-7,2.2-.7,4.3-1.1,6.5-1.1,1.9,0,4.3.3,7.3,1.1,3,.7,5.4,2.9,7.3,6.4,1,2.2,1.5,4.3,1.5,6.4v.7c0,.8-.8,1.4-2,1.8-.7.2-1.5.4-2.3.4-.7,0-1.5,0-2.3-.2-.7-.1-1.2-.5-1.4-1.2-.2-.7-.4-1.5-.5-2.5,0-.9-.2-1.8-.5-2.8-.2-.9-.6-1.8-1.3-2.5-.8-.8-1.7-1.3-2.8-1.4-.3,0-.7,0-1,0-.9,0-1.8.2-2.8.6-1,.4-1.9,1.2-2.7,2.4-.8,1.2-1.2,2.7-1.2,4.6.3,2,1.3,3.5,3.1,4.7,1.8,1.2,4,2.3,6.7,3.3,2,.8,4.1,1.8,6.3,2.9,3.5,1.9,5.7,4.4,6.6,7.4.5,1.4.7,2.9.7,4.3,0,1.6-.3,3.5-1.1,5.8-.7,2.3-2.3,4.4-4.6,6.4-2.3,1.8-5,3.1-8.1,3.8-1.6.3-3.1.5-4.7.6-1.5,0-3.3-.2-5.6-.6-2.2-.4-4.4-1.6-6.4-3.7-1.8-2-3.1-4.3-3.6-6.9-.3-1.3-.4-2.6-.5-3.8,0-1.2,0-2.4.3-3.6.2-.9,1-1.4,2.1-1.7.5-.1,1-.2,1.5-.2.8,0,1.6,0,2.5.3.8.2,1.3.7,1.5,1.3,0,.3,0,.6,0,.9,0,.4,0,.8,0,1.3,0,.5,0,.9,0,1.4,0,3.4.9,5.8,2.3,7.2,1.3,1.3,2.7,1.9,4.3,1.8.2,0,.8,0,1.8-.2,1-.1,2.2-.8,3.5-2.2,1.4-1.3,2-3,2-5.1-.2-3.1-1.2-5.4-3-6.8-1.8-1.5-4.1-2.8-7-3.9-1.5-.7-3.1-1.4-4.8-2.3h0Z"/>
  </g>
  <path class="cls-1" d="M303.3,163c1.4-2.2,2.9-4.3,4.7-6,1.8-1.7,3.7-3.2,5.9-4.3.5-.3,1.1-.5,1.7-.7l.8-.4.9-.3c.6-.2,1.2-.4,1.8-.5.6-.1,1.2-.2,1.9-.4.3,0,.6-.1,1-.2.3,0,.6,0,1,0l2-.2c1.3,0,2.7,0,4.1-.2h0c.4,0,.6-.4.6-.7,0-.3-.2-.5-.5-.5-1.3-.5-2.7-.9-4.2-1.2l-2.2-.2c-.7-.1-1.5-.1-2.2,0-.7,0-1.5,0-2.2.1-.7,0-1.5.3-2.2.4-.4,0-.8.1-1.1.2l-1.1.4c-.7.3-1.5.5-2.1.9-2.8,1.3-5.1,3.4-6.8,5.8-1.7,2.4-2.8,5.1-3.1,7.9,0,.4.2.7.6.7.3,0,.5-.1.6-.3h0c0,0,0,0,0,0Z"/>
  <g>
    <path class="cls-1" d="M92.3,88.1c-1.5-2.4-3.2-4.5-5.2-6.3s-4.2-3.3-6.6-4.5c-3.8-2-7.8-3.6-12-4.7-4.2-1.2-8.4-2.2-12.6-3.2s-8.5-2-12.7-3.2c-4.2-1.1-8.3-2.6-12.2-4.5-3.3-1.6-5.6-3.5-6.9-5.8-1.3-2.3-2-5.2-2-8.8,0-2.6.7-5.2,2.2-7.8,1.5-2.5,3.5-4.8,6-6.7,2.5-2,5.4-3.5,8.6-4.7s6.6-1.8,10.1-1.8c3.6,0,6.9.4,9.8,1.2,2.9.8,5.5,1.9,7.8,3.2,2.3,1.3,4.5,2.9,6.4,4.6s3.8,3.5,5.6,5.3c.8.9,1.7,1.6,2.8,2.1,1.1.5,2.2.7,3.4.8,1.2,0,2.3-.1,3.5-.5,1.1-.4,2.2-1,3.1-1.9.9-.9,1.6-1.9,2-3s.6-2.2.7-3.4c0-1.1-.2-2.3-.6-3.4-.4-1.1-1-2.2-1.8-3.1-2.2-2.6-4.7-5-7.5-7.4-2.8-2.4-5.9-4.5-9.4-6.4-3.5-1.9-7.4-3.4-11.6-4.5-4.3-1.1-9-1.7-14.2-1.6-6.1,0-11.9,1.1-17.3,3.2-5.5,2.1-10.2,5-14.3,8.5-4.1,3.6-7.3,7.7-9.7,12.5-2.4,4.7-3.6,9.7-3.6,15,0,3.9.5,7.5,1.4,10.6.9,3.1,2.2,5.9,3.8,8.3,1.6,2.5,3.5,4.6,5.7,6.4,2.2,1.8,4.5,3.4,7,4.7,3.4,1.8,7.3,3.4,11.8,4.6,4.5,1.2,9,2.4,13.5,3.4,4.6,1,8.9,2.1,13.1,3.2,4.2,1.1,7.7,2.5,10.6,4.1,3,1.7,5,3.6,6.2,5.7,1.2,2.1,1.8,4.9,1.8,8.4,0,2.8-.8,5.5-2.3,8-1.6,2.5-3.7,4.8-6.4,6.7s-5.8,3.4-9.4,4.6c-3.6,1.1-7.4,1.7-11.4,1.7-3.1,0-6.1-.3-9.2-1-3.1-.7-6-1.6-8.8-2.9s-5.3-2.6-7.6-4.2c-2.3-1.6-4.2-3.4-5.6-5.3-.8-1-1.6-1.8-2.7-2.4s-2.1-1-3.3-1.2-2.3-.2-3.5,0c-1.2.2-2.2.7-3.2,1.5-1,.7-1.8,1.6-2.4,2.6-.6,1-1,2.1-1.1,3.3s-.1,2.3.1,3.5c.2,1.2.7,2.2,1.4,3.2h0c2.3,3,5.1,5.9,8.5,8.5s7.1,4.8,11.1,6.6c4,1.8,8.3,3.3,12.8,4.3,4.5,1,9,1.5,13.7,1.5h0c6.5,0,12.7-1,18.4-3.1,5.8-2.1,10.8-4.9,15.1-8.4,4.3-3.5,7.7-7.7,10.1-12.4,2.5-4.8,3.7-9.8,3.7-15.1,0-3.8-.5-7.2-1.3-10.2-.8-3-2-5.8-3.5-8.2Z"/>
    <path class="cls-1" d="M249.6,135.3l-.3-52.5c0-5.3-1-10.2-3.1-14.9-2-4.6-4.8-8.7-8.3-12.1s-7.6-6.2-12.2-8.1c-4.6-2-9.6-2.9-14.9-2.9-2.7,0-5.4.4-8.1,1.1-2.7.7-5.3,1.7-7.8,3-2.5,1.3-4.9,3-7.1,5.1-2.2,2-4.2,4.4-5.9,7.2h-.4c-1.7-2.8-3.7-5.1-5.9-7.2-2.2-2-4.6-3.7-7.1-5-2.5-1.3-5.2-2.3-7.9-3-2.7-.6-5.5-.9-8.2-.9-4.3,0-8.5,1.1-12.7,3.1-4.2,2-7.9,5-11.3,8.9h-.4c-.4-1.9-1-3.5-2-4.9-1-1.4-1.8-2.5-2.4-3.3-.7-1-1.6-1.8-2.6-2.4-1-.6-2.1-1-3.3-1.2-1.2-.2-2.3-.1-3.5.2-1.2.3-2.2.8-3.2,1.5-1,.8-1.8,1.7-2.3,2.8-.6,1-.9,2.1-1,3.3-.1,1.1,0,2.3.2,3.4.3,1.1.8,2.2,1.5,3.2,3.2,4.3,4.8,9,4.9,14.2l.3,62.2c0,5,4.1,9.1,9.1,9.1s9.1-4.1,9.1-9.1,0,0,0,0c0,0,0,0,0,0l-.3-52.5c0-2.8.5-5.4,1.5-7.8,1-2.4,2.5-4.6,4.2-6.4,1.8-1.8,3.9-3.3,6.4-4.4,2.5-1.1,5.1-1.6,7.8-1.7s5.4.5,7.8,1.6c2.5,1.1,4.6,2.5,6.4,4.3,1.8,1.8,3.3,3.9,4.3,6.3,1.1,2.4,1.6,5,1.6,7.8l.3,52.6s0,0,0,0c.1,4.9,4.2,8.9,9.1,8.9s9.1-4,9.1-9c0,0,0,0,0,0h0c0,0,0,0,0,0s0,0,0,0l-.3-52.5c0-2.8.5-5.4,1.5-7.8,1-2.4,2.5-4.6,4.3-6.4s4-3.3,6.4-4.4c2.4-1.1,5-1.6,7.8-1.7,2.8,0,5.4.5,7.8,1.6,2.5,1.1,4.6,2.5,6.5,4.3,1.8,1.8,3.3,3.9,4.4,6.3s1.6,5,1.6,7.8l.3,52.5s0,0,0,0c0,0,0,.1,0,.2,0,5,4,9,9,9s9-4,9-9,0-.2,0-.3c0,0,0,0,0,0Z"/>
    <path class="cls-1" d="M280.4,35.1c2.5,0,4.7-.9,6.4-2.6s2.6-3.9,2.6-6.4v-5.4c0-2.6-.9-4.7-2.7-6.4-1.8-1.7-3.8-2.6-6.4-2.5s-4.7.9-6.5,2.6c-1.7,1.7-2.6,3.9-2.6,6.5v5.4c0,2.5.9,4.6,2.7,6.3,1.8,1.7,3.9,2.6,6.5,2.5Z"/>
    <path class="cls-1" d="M286.9,48.9c-1.8-1.7-3.8-2.6-6.4-2.6-2.6,0-4.7.9-6.5,2.7s-2.6,3.9-2.6,6.5l.4,79.7c0,2.6.9,4.7,2.7,6.5s3.9,2.6,6.5,2.6c2.5,0,4.7-.9,6.4-2.7,1.7-1.8,2.6-3.9,2.6-6.5l-.4-79.7c0-2.6-.9-4.7-2.7-6.5Z"/>
    <path class="cls-1" d="M335.1,129.6c-1.5-2.1-2.7-4.5-3.5-7.3s-1.2-5.4-1.2-7.8l-.5-100.3c0-1.2-.3-2.4-.8-3.5s-1.2-2.1-2-2.9c-.8-.8-1.8-1.5-2.9-2s-2.3-.7-3.5-.7c-1.2,0-2.4.3-3.5.8-1.1.5-2.1,1.2-2.9,2-.8.8-1.5,1.8-2,2.9-.5,1.1-.7,2.3-.7,3.5l.6,101.2c0,4.6.8,9.1,2.2,13.5,1.4,4.3,3.5,8.1,6.2,11.3h0c1.7,2,3.7,3.1,6.2,3.5,2.5.4,4.8-.1,6.9-1.6,1.1-.8,1.9-1.6,2.5-2.7.6-1.1.9-2.1,1-3.3,0-1.1,0-2.3-.4-3.4-.3-1.1-.9-2.2-1.6-3.3Z"/>
    <path class="cls-1" d="M394.3,84.5c-2.6,0-4.7.9-6.5,2.7-1.7,1.8-2.6,3.9-2.6,6.4,0,2.6.9,4.7,2.7,6.5s3.9,2.6,6.5,2.6l41.8-.2c2.6,0,4.7-.9,6.4-2.7,1.7-1.8,2.6-3.9,2.5-6.5,0-7.2-1.3-13.8-3.7-19.9-2.4-6.1-5.8-11.4-10-15.8-4.2-4.4-9.2-7.9-14.9-10.3-5.7-2.5-11.9-3.7-18.5-3.6-4.7,0-9.2.6-13.5,1.9-4.3,1.2-8.3,2.9-12,5.1-3.7,2.2-7.1,4.8-10.2,7.9-3,3.1-5.7,6.4-7.8,10.1s-3.8,7.7-5,12c-1.2,4.3-1.7,8.7-1.7,13.2,0,4.6.6,9,1.9,13.3,1.2,4.2,2.9,8.2,5.2,11.9,2.2,3.7,4.9,7.1,8,10.1,3.1,3,6.5,5.6,10.3,7.8,3.8,2.2,7.8,3.8,12.1,5s8.8,1.8,13.5,1.7h0c3.3,0,6.7-.4,10-1.1,3.4-.7,6.7-1.7,9.9-3,3.2-1.3,6.3-2.9,9.2-4.7,2.9-1.8,5.5-3.8,7.9-6,1.9-1.9,2.8-4.1,2.8-6.5,0-2.4-.9-4.6-2.8-6.4-.9-.9-1.9-1.6-3-2.1-1.1-.4-2.2-.7-3.4-.7s-2.3.2-3.4.7c-1.1.4-2.1,1.1-3,1.9-3,3.2-6.8,5.5-11.2,7.1-4.4,1.6-8.8,2.4-13.2,2.4-4.5,0-8.7-.8-12.7-2.4-4-1.6-7.4-3.9-10.4-6.8-3-2.9-5.3-6.2-7-10.1-1.7-3.9-2.6-8-2.6-12.3,0-4.4.8-8.5,2.5-12.4,1.7-3.9,4-7.3,6.9-10.2,2.9-2.9,6.4-5.2,10.3-6.9,4-1.7,8.2-2.5,12.7-2.6,3.7,0,7.1.6,10.4,1.7,3.2,1.2,6.1,2.8,8.6,4.8,2.5,2,4.6,4.5,6.2,7.3,1.6,2.8,2.7,5.9,3.2,9.1l-14.4-.3h-18Z"/>
  </g>
</svg>